<mxfile host="Electron" modified="2023-11-08T01:24:00.687Z" agent="Mozilla/5.0 (Macintosh; Intel Mac OS X 10_15_7) AppleWebKit/537.36 (KHTML, like Gecko) draw.io/22.0.3 Chrome/114.0.5735.289 Electron/25.8.4 Safari/537.36" etag="YmOcVa5tdE7x53YtpWXr" version="22.0.3" type="device">
  <diagram name="第 1 页" id="DzDW-dfhw4lJwukW_PHo">
    <mxGraphModel dx="1710" dy="1097" grid="1" gridSize="10" guides="1" tooltips="1" connect="1" arrows="1" fold="1" page="1" pageScale="1" pageWidth="827" pageHeight="1169" math="0" shadow="0">
      <root>
        <mxCell id="0" />
        <mxCell id="1" parent="0" />
        <mxCell id="3CtuA4saVtMP3_G-UQg_-1" value="&lt;font style=&quot;font-size: 24px;&quot;&gt;Nil&lt;/font&gt;" style="rounded=0;whiteSpace=wrap;html=1;" vertex="1" parent="1">
          <mxGeometry x="720" width="70" height="40" as="geometry" />
        </mxCell>
        <mxCell id="3CtuA4saVtMP3_G-UQg_-2" value="&lt;font style=&quot;font-size: 24px;&quot;&gt;Cons&lt;/font&gt;" style="rounded=0;whiteSpace=wrap;html=1;" vertex="1" parent="1">
          <mxGeometry width="70" height="40" as="geometry" />
        </mxCell>
        <mxCell id="3CtuA4saVtMP3_G-UQg_-3" value="&lt;font style=&quot;font-size: 24px;&quot;&gt;1&lt;/font&gt;" style="rounded=0;whiteSpace=wrap;html=1;" vertex="1" parent="1">
          <mxGeometry x="70" width="60" height="40" as="geometry" />
        </mxCell>
        <mxCell id="3CtuA4saVtMP3_G-UQg_-4" value="" style="rounded=0;whiteSpace=wrap;html=1;" vertex="1" parent="1">
          <mxGeometry x="130" width="60" height="40" as="geometry" />
        </mxCell>
        <mxCell id="3CtuA4saVtMP3_G-UQg_-5" value="&lt;font style=&quot;font-size: 24px;&quot;&gt;Cons&lt;/font&gt;" style="rounded=0;whiteSpace=wrap;html=1;" vertex="1" parent="1">
          <mxGeometry x="240" width="70" height="40" as="geometry" />
        </mxCell>
        <mxCell id="3CtuA4saVtMP3_G-UQg_-6" value="&lt;font style=&quot;font-size: 24px;&quot;&gt;2&lt;/font&gt;" style="rounded=0;whiteSpace=wrap;html=1;" vertex="1" parent="1">
          <mxGeometry x="310" width="60" height="40" as="geometry" />
        </mxCell>
        <mxCell id="3CtuA4saVtMP3_G-UQg_-7" value="" style="rounded=0;whiteSpace=wrap;html=1;" vertex="1" parent="1">
          <mxGeometry x="370" width="60" height="40" as="geometry" />
        </mxCell>
        <mxCell id="3CtuA4saVtMP3_G-UQg_-8" value="" style="curved=1;endArrow=classic;html=1;rounded=0;entryX=0;entryY=0.5;entryDx=0;entryDy=0;" edge="1" parent="1" target="3CtuA4saVtMP3_G-UQg_-5">
          <mxGeometry width="50" height="50" relative="1" as="geometry">
            <mxPoint x="160" y="20" as="sourcePoint" />
            <mxPoint x="270" y="50" as="targetPoint" />
            <Array as="points">
              <mxPoint x="200" y="10" />
              <mxPoint x="220" y="40" />
            </Array>
          </mxGeometry>
        </mxCell>
        <mxCell id="3CtuA4saVtMP3_G-UQg_-13" value="&lt;font style=&quot;font-size: 24px;&quot;&gt;Cons&lt;/font&gt;" style="rounded=0;whiteSpace=wrap;html=1;" vertex="1" parent="1">
          <mxGeometry x="480" width="70" height="40" as="geometry" />
        </mxCell>
        <mxCell id="3CtuA4saVtMP3_G-UQg_-14" value="&lt;font style=&quot;font-size: 24px;&quot;&gt;3&lt;/font&gt;" style="rounded=0;whiteSpace=wrap;html=1;" vertex="1" parent="1">
          <mxGeometry x="550" width="60" height="40" as="geometry" />
        </mxCell>
        <mxCell id="3CtuA4saVtMP3_G-UQg_-15" value="" style="rounded=0;whiteSpace=wrap;html=1;" vertex="1" parent="1">
          <mxGeometry x="610" width="60" height="40" as="geometry" />
        </mxCell>
        <mxCell id="3CtuA4saVtMP3_G-UQg_-16" value="" style="curved=1;endArrow=classic;html=1;rounded=0;entryX=0;entryY=0.5;entryDx=0;entryDy=0;" edge="1" parent="1" target="3CtuA4saVtMP3_G-UQg_-13">
          <mxGeometry width="50" height="50" relative="1" as="geometry">
            <mxPoint x="400" y="20" as="sourcePoint" />
            <mxPoint x="510" y="50" as="targetPoint" />
            <Array as="points">
              <mxPoint x="440" y="10" />
              <mxPoint x="460" y="40" />
            </Array>
          </mxGeometry>
        </mxCell>
        <mxCell id="3CtuA4saVtMP3_G-UQg_-17" value="" style="curved=1;endArrow=classic;html=1;rounded=0;entryX=0;entryY=0.5;entryDx=0;entryDy=0;" edge="1" parent="1" target="3CtuA4saVtMP3_G-UQg_-1">
          <mxGeometry width="50" height="50" relative="1" as="geometry">
            <mxPoint x="640" y="20" as="sourcePoint" />
            <mxPoint x="720" y="20" as="targetPoint" />
            <Array as="points">
              <mxPoint x="680" y="10" />
              <mxPoint x="700" y="40" />
            </Array>
          </mxGeometry>
        </mxCell>
      </root>
    </mxGraphModel>
  </diagram>
</mxfile>
